# xmcd
#
# Track frame offsets:
#	150
#	15565
#	30393
#	44354
#	58821
#	73429
#	87786
#	102360
#	116173
#	130094
#	143374
#	157557
#	172475
#	188593
#	204986
#	219288
#	234112
#	247888
#	261822
#	275592
#
# Disc length: 3861 seconds
#
# Revision: 0
# Processed by: cddbd v1.5.2PL0 Copyright (c) Steve Scherf et al.
# Submitted via: EasyCDDAExtractor 16.0.6.1
#
DISCID=0e0f1314
DTITLE=Συλλογικός δίσκος - Τα ρεμπέτικα Γ 1937-1960 16 Α
DYEAR=2010
DGENRE=Ρεμπέτικη
TTITLE0=Βαμβακάρης Μάρκος-Τσιτσάνης Βασίλης - Μάγκας βγήκε για συργιάνι [ζεϊμπ
TTITLE0=Β.Τσιτσάνης-Α.Καλδάρας,Αθ6.1946]
TTITLE1=Χατζηχρήστος Απόστολος-Σταμούλης Ιωάννης - Φτώχεια [ζεϊμπ. Απ. Χατζηχρ
TTITLE1=ήστος, Αθήνα 22.6.1946]
TTITLE2=Βαμβακάρης Μάρκος-Χατζηχρήστος Απ.-Παπαϊωάννου Γ. - Δροσούλα [ζεϊμπ. Β
TTITLE2=Τσιτσάνης, Αθ 6.1946]
TTITLE3=Μανισαλής Γιώργος - Το κομπολογάκι [ζεϊμπ. Γ. Μητσάκης, Αθήνα 1946]
TTITLE4=Παγιουμτζής Στράτος-Κηρομύτης Στέλιος - Της μαστούρας ο σκοπός [ζεϊμπ.
TTITLE4=Β. Τσιτσάνης, Αθ 6.1946]
TTITLE5=Βαμβακάρης Μάρκος-Εσκενάζυ Ρόζα - Χρόνια στον Πειραία [ζεϊμπ. Μ. Βαμβα
TTITLE5=κάρης, Αθ 24.6.1946]
TTITLE6=Παγιουμτζής Στράτος-Τσιτσάνης Βασίλης - Βάρκα γιαλό [α΄'εγκρο, Β. Τσιτ
TTITLE6=σάνης, Αθήνα 6.1946]
TTITLE7=Μανισαλής Γιώργος - Ο λουλάς [ζεϊμπ. Γ. Μητσάκης, Αθήνα 24.6.1946]
TTITLE8=Εσκενάζυ Ρόζα-Κασιμάτης Ζαχαρίας - Πασατέμπος [χασ. Μ. Χιώτης-Γ. Γιανν
TTITLE8=ακόπουλος, Αθ 6.1946]
TTITLE9=Χατζηχρήστος Απόστολος - Αμαξάς [χασ. Α. Χατζηχρήστος, Αθήνα 7.1946]
TTITLE10=Σταυροπούλου Νταίζη-Τσιτσάνης Βασίλης - Στον Άγιο Κωνσταντίνο [χασ. Β
TTITLE10=Τσιτσάνης, Αθ 6.9.1946]
TTITLE11=Γκόγκος Δημήτρης-Χρυσίνης Στέλιος - Του Κυριάκου το γαϊδούρι [χασ.Δ.Γ
TTITLE11=κόγκος-Δ.Αραμπατζόγλου,Αθ 1946]
TTITLE12=Χατζηχρήστος Απόστολος-Σταμούλης Ιωάννης - Μαυροφόρα [χασ. Α. Χατζηχρ
TTITLE12=ήστος, Αθήνα 1946]
TTITLE13=Πολυμέρης Φώτης - Αφρικάνα [αν. ταγκό, Ζ.Ιακωβίδης-Σ.Περιστέρης-Μ.Μάτ
TTITLE13=σας,Αθ 1946]
TTITLE14=Πολυμέρης Φώτης-Τσιτσάνης Βασίλης - Αραπίνες [τσιφτ. Β. Τσιτσάνης, Αθ
TTITLE14=10.1946]
TTITLE15=Παπαϊωάννου Γιάννης-Μοσχονάς Οδυσσέας - Απ' της Ζέας το λιμάνι [χασ. 
TTITLE15=Γ.Παπαϊωάννου-Χ.Βασιλειάδης,Αθ6.1946]
TTITLE16=Παγιουμτζής Στράτος-Τσιτσάνης Βασίλης - Χατζη-Μπαξές [χασ. Β. Τσιτσάν
TTITLE16=ης, Αθήνα 1946]
TTITLE17=Γεωργακοπούλου Ιωάννα-Περπινιάδης Στελλάκης - Η πεταλούδα [χασ. Γ. Μη
TTITLE17=τσάκης-Δ. Σέμσης, Αθ 1946]
TTITLE18=Μοσχονάς Οδυσσέας-Περπινιάδης Στελλάκης - Ντόμινα Μαργαρώ [αλλέγκρο, 
TTITLE18=Γ. Παπαϊωάννου-Κ.Μάνεσης, Αθ 1946]
TTITLE19=Ρούκουνας Κώστας ή Σαμιωτάκης - Η μπόμπα [συρτό, Κ. Ρούκουνας, Αθ 6.1
TTITLE19=946]
EXTD=
EXTT0=
EXTT1=
EXTT2=
EXTT3=
EXTT4=
EXTT5=
EXTT6=
EXTT7=
EXTT8=
EXTT9=
EXTT10=
EXTT11=
EXTT12=
EXTT13=
EXTT14=
EXTT15=
EXTT16=
EXTT17=
EXTT18=
EXTT19=
PLAYORDER=
